<?xml version="1.0"?>
<svg xmlns="http://www.w3.org/2000/svg" xmlns:xlink="http://www.w3.org/1999/xlink" viewBox="0 0 512 512" width="512" height="512"><defs><linearGradient id="linear-gradient" x1="104.739" y1="442.466" x2="393.795" y2="153.41" gradientUnits="userSpaceOnUse"><stop offset="0" stop-color="#41dfd0"/><stop offset="1" stop-color="#ee83ef"/></linearGradient></defs><g id="gradient"><path d="M115.562,329.344a8,8,0,0,0-3.39,8.3L140.16,470.593A32.145,32.145,0,0,0,171.474,496H340.526a32.145,32.145,0,0,0,31.314-25.407l27.988-132.945a8,8,0,0,0-3.39-8.3,52,52,0,0,0-4.826-2.822,118.152,118.152,0,0,0-11.979-43.613A38.723,38.723,0,0,0,384,265.016v-2.032a39.229,39.229,0,0,0-21.091-34.613A38.8,38.8,0,0,0,368,209.164v-2.328a38.884,38.884,0,0,0-37.548-38.815,62.055,62.055,0,0,0-8.807-86.4l-28.524-23.77A8,8,0,0,0,280,64V92.687a19.3,19.3,0,0,1-15.78,18.981A39.973,39.973,0,0,0,232,48q-1,0-2,.051a50.191,50.191,0,0,1,8.489-19.38,8,8,0,0,0-12.988-9.342A65.968,65.968,0,0,0,213.216,52.7a39.957,39.957,0,0,0-9.416,63.64A37.242,37.242,0,0,0,184,149.212v5.576A37.159,37.159,0,0,0,186.442,168h-3.606A38.88,38.88,0,0,0,144,206.836v2.328a38.8,38.8,0,0,0,5.091,19.207A39.229,39.229,0,0,0,128,262.984v2.032a38.723,38.723,0,0,0,4.367,17.893,118.128,118.128,0,0,0-11.979,43.613A51.772,51.772,0,0,0,115.562,329.344ZM155.816,467.3,129.03,340.062a35.14,35.14,0,0,1,31.652.885L182.637,480H171.474A16.074,16.074,0,0,1,155.816,467.3Zm52.649-126.461L223.114,480H198.836L176.763,340.2A35.126,35.126,0,0,1,208.465,340.835ZM239.2,480,224.611,341.386a99.131,99.131,0,0,1,62.778,0L272.8,480Zm64.333-139.165a35.126,35.126,0,0,1,31.7-.634L313.164,480H288.886ZM356.184,467.3A16.074,16.074,0,0,1,340.526,480H329.363l21.955-139.053a35.14,35.14,0,0,1,31.652-.885ZM232,64a24,24,0,1,1-24,24A24.028,24.028,0,0,1,232,64ZM144,262.984a23.084,23.084,0,0,1,19.607-22.732,314.283,314.283,0,0,0,87.48-22.521,8,8,0,1,0-6.174-14.761,298.274,298.274,0,0,1-79.477,20.961A22.832,22.832,0,0,1,160,209.164v-2.328A22.862,22.862,0,0,1,182.836,184h18.3a8,8,0,0,0,5.5-13.81,21.012,21.012,0,0,1-6.639-15.4v-5.576A21.236,21.236,0,0,1,221.212,128h39.475A35.313,35.313,0,0,0,296,92.687V81.08l15.4,12.835a46.129,46.129,0,0,1-5.795,74.991l-.387.233a7.969,7.969,0,0,0-.937.663l-4.727,3.269C292,178.3,284.1,183.242,276.078,187.752a8,8,0,1,0,7.844,13.945c8.448-4.752,16.77-9.956,24.736-15.468L311.881,184h17.283A22.862,22.862,0,0,1,352,206.836v2.328a22.851,22.851,0,0,1-7.774,17.155,7.958,7.958,0,0,0-1.535,1.833l-4.294,2.97a298.738,298.738,0,0,1-63.411,33.4,8,8,0,1,0,5.7,14.95,314.756,314.756,0,0,0,66.812-35.2l4.565-3.158A23.11,23.11,0,0,1,368,262.984v2.032A23.011,23.011,0,0,1,345.016,288H252.893a8,8,0,0,0-6.963-14.058,301.357,301.357,0,0,1-37.827,7.569l-45.483,6.068A23.019,23.019,0,0,1,144,265.016Zm-.176,33.368a38.787,38.787,0,0,0,17.76,7.265c.054.007.107.016.162.021,1.715.231,183.27.362,183.27.362a38.774,38.774,0,0,0,23.16-7.648,101.979,101.979,0,0,1,6.772,24.854A51.07,51.07,0,0,0,344,326.694a51.09,51.09,0,0,0-48.811.44,115.138,115.138,0,0,0-78.378,0,51.09,51.09,0,0,0-48.811-.44,51.069,51.069,0,0,0-30.948-5.489A101.959,101.959,0,0,1,143.824,296.352ZM240,144h16v16H240Zm56,16H280V144h16ZM176,200h16v16H176Zm151,15H311V199h16ZM216,264H200V248h16Z" style="fill:url(#linear-gradient)"/></g></svg>
