<?xml version="1.0"?>
<svg xmlns="http://www.w3.org/2000/svg" xmlns:xlink="http://www.w3.org/1999/xlink" viewBox="0 0 512 512" width="512" height="512"><defs><linearGradient id="linear-gradient" x1="91.729" y1="412.271" x2="425.549" y2="78.451" gradientUnits="userSpaceOnUse"><stop offset="0" stop-color="#41dfd0"/><stop offset="1" stop-color="#ee83ef"/></linearGradient></defs><g id="gradient"><path d="M240,472a24,24,0,1,0-24-24A24.027,24.027,0,0,0,240,472Zm0-32a8,8,0,1,1-8,8A8.009,8.009,0,0,1,240,440Zm176,32a24,24,0,1,0-24-24A24.027,24.027,0,0,0,416,472Zm0-32a8,8,0,1,1-8,8A8.009,8.009,0,0,1,416,440ZM22.06,55.761l80.851,20.213A11.983,11.983,0,0,1,112,87.616V136h-8a8,8,0,0,0-8,8V350.783a21.981,21.981,0,0,0,16,21.16V416a40.045,40.045,0,0,0,40,40h40.679a48.073,48.073,0,0,0,47.292,40c.906,0,1.821-.025,2.737-.077A48.076,48.076,0,0,0,287.32,456H368c.227,0,.451-.015.673-.034a47.991,47.991,0,0,0,94.648.034H488a8,8,0,0,0,0-16H463.321a47.991,47.991,0,0,0-94.648.034c-.222-.019-.446-.034-.673-.034H287.323a47.991,47.991,0,0,0-94.643,0H152a24.027,24.027,0,0,1-24-24V371.172l350.487-73.018A22.091,22.091,0,0,0,496,276.616V158a22.025,22.025,0,0,0-22-22H128V87.616a27.959,27.959,0,0,0-21.209-27.164L25.94,40.239a8,8,0,1,0-3.88,15.522ZM416,416a32,32,0,1,1-32,32A32.036,32.036,0,0,1,416,416Zm-177.806.051a32,32,0,1,1-30.143,33.754h0A32.037,32.037,0,0,1,238.194,416.051ZM144,152v32H112V152Zm336,80H448V200h32Zm0,44.616A5.957,5.957,0,0,1,478.921,280H448V248h32ZM256.623,328.031c-.206-.015-.413-.031-.623-.031V296h32v25.5Zm-137.4,28.625h0A6,6,0,0,1,112,350.783V344h32v7.5ZM384,280H352V248h32Zm16-32h32v32H400ZM144,280H112V248h32Zm16-32h32v32H160Zm-16,48v32H112V296Zm16,0h32v32H160Zm48,0h32v32H208Zm0-16V248h32v32Zm48-32h32v32H256Zm48,0h32v32H304Zm48-16V200h32v32Zm-16,0H304V200h32Zm-48,0H256V200h32Zm-48,0H208V200h32Zm-48,0H160V200h32Zm-48,0H112V200h32Zm16,112h19.974L160,348.161Zm144-48h32v15.5l-32,6.666Zm48,0h32v5.5l-32,6.666Zm48,0h10.374L400,298.161Zm32-64H400V200h32Zm-32-48V152h32v32Zm-16,0H352V152h32Zm-48,0H304V152h32Zm-48,0H256V152h32Zm-48,0H208V152h32Zm-48,0H160V152h32Zm288-26v26H448V152h26A6.006,6.006,0,0,1,480,158Z" style="fill:url(#linear-gradient)"/></g></svg>
